<mxfile host="app.diagrams.net" modified="2024-08-02T03:28:35.396Z" agent="Mozilla/5.0 (Macintosh; Intel Mac OS X 10_15_7) AppleWebKit/537.36 (KHTML, like Gecko) Chrome/123.0.0.0 Safari/537.36 OPR/109.0.0.0" etag="hCg0aU9DEQ4tbNQsVKWA" version="24.7.1" type="device">
  <diagram name="Page-1" id="cxJN344DeU6Jj1aT5pXE">
    <mxGraphModel dx="735" dy="748" grid="1" gridSize="10" guides="1" tooltips="1" connect="1" arrows="1" fold="1" page="1" pageScale="1" pageWidth="850" pageHeight="1100" math="0" shadow="0">
      <root>
        <mxCell id="0" />
        <mxCell id="1" parent="0" />
        <mxCell id="JfEzEyvoyAKXiHGjm4NK-1" value="" style="sketch=0;html=1;aspect=fixed;strokeColor=none;shadow=0;fillColor=#3B8DF1;verticalAlign=top;labelPosition=center;verticalLabelPosition=bottom;shape=mxgraph.gcp2.cloud_computer" vertex="1" parent="1">
          <mxGeometry x="490" y="379" width="150" height="132" as="geometry" />
        </mxCell>
        <mxCell id="JfEzEyvoyAKXiHGjm4NK-2" value="" style="outlineConnect=0;dashed=0;verticalLabelPosition=bottom;verticalAlign=top;align=center;html=1;shape=mxgraph.aws3.elastic_beanstalk;fillColor=#F58534;gradientColor=none;" vertex="1" parent="1">
          <mxGeometry x="288" y="140" width="120" height="143" as="geometry" />
        </mxCell>
        <mxCell id="JfEzEyvoyAKXiHGjm4NK-4" value="" style="sketch=0;outlineConnect=0;fontColor=#232F3E;gradientColor=none;fillColor=#ED7100;strokeColor=none;dashed=0;verticalLabelPosition=bottom;verticalAlign=top;align=center;html=1;fontSize=12;fontStyle=0;aspect=fixed;pointerEvents=1;shape=mxgraph.aws4.deployment;" vertex="1" parent="1">
          <mxGeometry x="408" y="150" width="58.43" height="56" as="geometry" />
        </mxCell>
        <mxCell id="JfEzEyvoyAKXiHGjm4NK-5" value="" style="sketch=0;outlineConnect=0;fontColor=#232F3E;gradientColor=none;fillColor=#ED7100;strokeColor=none;dashed=0;verticalLabelPosition=bottom;verticalAlign=top;align=center;html=1;fontSize=12;fontStyle=0;aspect=fixed;pointerEvents=1;shape=mxgraph.aws4.deployment;" vertex="1" parent="1">
          <mxGeometry x="230" y="220" width="58" height="55.58" as="geometry" />
        </mxCell>
        <mxCell id="JfEzEyvoyAKXiHGjm4NK-6" value="" style="verticalLabelPosition=bottom;html=1;verticalAlign=top;align=center;strokeColor=none;fillColor=#00BEF2;shape=mxgraph.azure.github_code;pointerEvents=1;" vertex="1" parent="1">
          <mxGeometry x="160" y="370" width="140" height="150" as="geometry" />
        </mxCell>
        <mxCell id="JfEzEyvoyAKXiHGjm4NK-7" value="" style="endArrow=classic;startArrow=classic;html=1;rounded=0;" edge="1" parent="1" source="JfEzEyvoyAKXiHGjm4NK-6">
          <mxGeometry width="50" height="50" relative="1" as="geometry">
            <mxPoint x="350" y="410" as="sourcePoint" />
            <mxPoint x="480" y="445" as="targetPoint" />
          </mxGeometry>
        </mxCell>
        <mxCell id="JfEzEyvoyAKXiHGjm4NK-8" value="" style="endArrow=classic;html=1;rounded=0;" edge="1" parent="1">
          <mxGeometry width="50" height="50" relative="1" as="geometry">
            <mxPoint x="540" y="370" as="sourcePoint" />
            <mxPoint x="350" y="290" as="targetPoint" />
          </mxGeometry>
        </mxCell>
        <mxCell id="JfEzEyvoyAKXiHGjm4NK-9" value="AWS Elastic Beanstalk" style="text;strokeColor=none;align=center;fillColor=none;html=1;verticalAlign=middle;whiteSpace=wrap;rounded=0;" vertex="1" parent="1">
          <mxGeometry x="300" y="290" width="60" height="30" as="geometry" />
        </mxCell>
        <mxCell id="JfEzEyvoyAKXiHGjm4NK-10" value="Instance 1" style="text;strokeColor=none;align=center;fillColor=none;html=1;verticalAlign=middle;whiteSpace=wrap;rounded=0;" vertex="1" parent="1">
          <mxGeometry x="220" y="275.58" width="60" height="30" as="geometry" />
        </mxCell>
        <mxCell id="JfEzEyvoyAKXiHGjm4NK-11" value="Instance 2" style="text;strokeColor=none;align=center;fillColor=none;html=1;verticalAlign=middle;whiteSpace=wrap;rounded=0;" vertex="1" parent="1">
          <mxGeometry x="406.43" y="196.5" width="60" height="30" as="geometry" />
        </mxCell>
        <mxCell id="JfEzEyvoyAKXiHGjm4NK-12" value="Jenkins&lt;span style=&quot;color: rgba(0, 0, 0, 0); font-family: monospace; font-size: 0px; text-align: start; text-wrap: nowrap;&quot;&gt;%3CmxGraphModel%3E%3Croot%3E%3CmxCell%20id%3D%220%22%2F%3E%3CmxCell%20id%3D%221%22%20parent%3D%220%22%2F%3E%3CmxCell%20id%3D%222%22%20value%3D%22AWS%20Elastic%20Beanstalk%22%20style%3D%22text%3BstrokeColor%3Dnone%3Balign%3Dcenter%3BfillColor%3Dnone%3Bhtml%3D1%3BverticalAlign%3Dmiddle%3BwhiteSpace%3Dwrap%3Brounded%3D0%3B%22%20vertex%3D%221%22%20parent%3D%221%22%3E%3CmxGeometry%20x%3D%22300%22%20y%3D%22290%22%20width%3D%2260%22%20height%3D%2230%22%20as%3D%22geometry%22%2F%3E%3C%2FmxCell%3E%3C%2Froot%3E%3C%2FmxGraphModel%3E&lt;/span&gt;" style="text;strokeColor=none;align=center;fillColor=none;html=1;verticalAlign=middle;whiteSpace=wrap;rounded=0;" vertex="1" parent="1">
          <mxGeometry x="535" y="520" width="60" height="30" as="geometry" />
        </mxCell>
        <mxCell id="JfEzEyvoyAKXiHGjm4NK-13" value="CI/CD Pipeline" style="text;strokeColor=none;align=center;fillColor=none;html=1;verticalAlign=middle;whiteSpace=wrap;rounded=0;" vertex="1" parent="1">
          <mxGeometry x="360" y="410" width="60" height="30" as="geometry" />
        </mxCell>
        <mxCell id="JfEzEyvoyAKXiHGjm4NK-14" value="Deploy" style="text;strokeColor=none;align=center;fillColor=none;html=1;verticalAlign=middle;whiteSpace=wrap;rounded=0;rotation=15;" vertex="1" parent="1">
          <mxGeometry x="420" y="300" width="60" height="30" as="geometry" />
        </mxCell>
        <mxCell id="JfEzEyvoyAKXiHGjm4NK-16" value="GitHub" style="text;strokeColor=none;align=center;fillColor=none;html=1;verticalAlign=middle;whiteSpace=wrap;rounded=0;" vertex="1" parent="1">
          <mxGeometry x="200" y="520" width="60" height="30" as="geometry" />
        </mxCell>
        <mxCell id="JfEzEyvoyAKXiHGjm4NK-17" value="&lt;li&gt;&lt;p&gt;&lt;strong&gt;GitHub:&amp;nbsp;&lt;/strong&gt;&lt;span style=&quot;background-color: initial;&quot;&gt;This is where the application&#39;s source code is stored. Developers push their code changes to the GitHub repository&lt;/span&gt;&lt;/p&gt;&lt;/li&gt;&lt;li&gt;&lt;p&gt;&lt;strong style=&quot;background-color: initial;&quot;&gt;Jenkins&lt;/strong&gt;&lt;span style=&quot;background-color: initial;&quot;&gt;: This&lt;/span&gt;&lt;span style=&quot;background-color: initial;&quot;&gt;&amp;nbsp;is used for continuous integration and continuous deployment (CI/CD). It pulls the latest code from GitHub, builds it, runs tests, and deploys the application to Elastic Beanstalk.&lt;/span&gt;&lt;/p&gt;&lt;/li&gt;&lt;li&gt;&lt;p&gt;&lt;strong&gt;AWS Elastic Beanstalk&lt;/strong&gt;:&amp;nbsp;&lt;span style=&quot;background-color: initial;&quot;&gt;This manages the deployment and scaling of the application. It contains multiple instances of the application running in a managed environment.&lt;/span&gt;&lt;/p&gt;&lt;/li&gt;" style="text;whiteSpace=wrap;html=1;" vertex="1" parent="1">
          <mxGeometry x="140" y="590" width="560" height="220" as="geometry" />
        </mxCell>
      </root>
    </mxGraphModel>
  </diagram>
</mxfile>
